<svg width="32" height="32" viewBox="0 0 32 32" xmlns="http://www.w3.org/2000/svg"><title>199EECE3-9715-433C-99D1-987B34020068</title><g fill="none" fill-rule="evenodd"><ellipse fill="#DEE0E2" cx="16" cy="16" rx="16" ry="16"/><ellipse fill="#FFB819" cx="16" cy="16" rx="16" ry="16"/><path d="M11.038 4.197C6.433 6.136 3.2 10.69 3.2 16c0 7.07 5.73 12.8 12.8 12.8S28.8 23.07 28.8 16c0-5.284-3.201-9.82-7.77-11.774" stroke="#FFF" stroke-width="2" stroke-linecap="round" opacity=".9"/><path d="M16.01 12.714c-1.725 0-3.028 1.36-3.028 3.162 0 1.8 1.303 3.162 3.027 3.162 1.705 0 3.009-1.361 3.009-3.162s-1.304-3.162-3.009-3.162m3.411 6.476c-.9.882-2.108 1.36-3.41 1.36-1.323 0-2.53-.478-3.43-1.36a4.618 4.618 0 0 1-1.38-3.314c0-1.265.498-2.453 1.38-3.316.9-.881 2.107-1.36 3.43-1.36 1.302 0 2.51.479 3.41 1.36a4.62 4.62 0 0 1 1.38 3.316 4.616 4.616 0 0 1-1.38 3.314" fill="#FFF" opacity=".9"/><ellipse fill="#FFF" opacity=".9" cx="16" cy="3.2" rx="1.6" ry="1.6"/></g></svg>